<?xml version="1.0" encoding="UTF-8"?>
<svg version="1.1" viewBox="0 0 2048 2048" xmlns="http://www.w3.org/2000/svg">
  <g transform="translate(0 995.64)">
    <g transform="matrix(96.753 0 0 96.753 55.328 -100816)">
      <path transform="matrix(.010336 0 0 .010336 -.57185 1031.7)" d="m879 220.18c-118.95 7.1404-143.49-24.247-145 105.61v19.285l-353.5 113.6c-40.55 10.478-40.795 60.587 0 60.723h1278c40 1.161 38.571-50.486 0-60.723l-344.5-111.87v-21.012c0-127.32-13.022-98.542-145-105.61h-145zm-440.63 416.21c-29.317 0.0646-52.29 25.221-49.699 54.424l102.04 1135.3c2.3072 25.743 23.853 45.486 49.699 45.541h937.1c25.389 0.015 46.76-18.998 49.699-44.217l132.09-1135.3c3.4292-29.702-19.8-55.755-49.699-55.74h-292.81-292.81zm54.801 99.965h530.82 529.5l-120.38 1035.4h-846.96zm245.11 150.97c-1.8304-0.0876-3.6641-0.0837-5.4941 0.0117-32.481 1.7523-56.355 31.156-51.4 63.305l91.273 654.21c2.8631 31.254 31.254 53.781 62.34 49.465 31.086-4.3157 52.267-33.725 46.508-64.576l-91.273-654.21c-3.2799-26.57-25.213-46.919-51.953-48.203zm575.21 0.0117c-28.186-0.59596-52.26 20.215-55.746 48.191l-91.273 654.21c-5.7587 30.852 15.422 60.26 46.508 64.576 31.086 4.3157 59.477-18.211 62.34-49.464l91.272-654.21c5.0149-32.798-19.93-62.536-53.1-63.305z"/>
    </g>
  </g>
</svg>