<svg xmlns="http://www.w3.org/2000/svg" width="54" height="54" viewBox="0 0 54 54">
  <path fill-rule="evenodd" d="M45,13 C46.6568542,13 48,14.3431458 48,16 L48,38 C48,39.6568542 46.6568542,41 45,41 L9,41 C7.34314575,41 6,39.6568542 6,38 L6,16 C6,14.3431458 7.34314575,13 9,13 L45,13 Z M45,15 L9,15 C8.44771525,15 8,15.4477153 8,16 L8,16 L8,38 C8,38.5522847 8.44771525,39 9,39 L9,39 L45,39 C45.5522847,39 46,38.5522847 46,38 L46,38 L46,16 C46,15.4477153 45.5522847,15 45,15 L45,15 Z M43.863961,30.5 L44.7124892,31.3485281 L38.3485281,37.7124892 L37.5,36.863961 L43.863961,30.5 Z M44.1284271,34 L44.9769553,34.8485281 L42.1485281,37.6769553 L41.3,36.8284271 L44.1284271,34 Z M13,19 L13,29 L11,29 L11,19 L13,19 Z"/>
</svg>
