<svg width="54" height="54" viewBox="0 0 54 54" fill="none" xmlns="http://www.w3.org/2000/svg">
<path fill-rule="evenodd" clip-rule="evenodd" d="M14.35 24.75H19V29.4H14.35V24.75ZM12.9358 23.3358C13.3109 22.9607 13.8196 22.75 14.35 22.75H19C19.5304 22.75 20.0391 22.9607 20.4142 23.3358C20.7893 23.7109 21 24.2196 21 24.75V29.4C21 29.9304 20.7893 30.4391 20.4142 30.8142C20.0391 31.1893 19.5304 31.4 19 31.4H14.35C13.8196 31.4 13.3109 31.1893 12.9358 30.8142C12.5607 30.4391 12.35 29.9304 12.35 29.4V24.75C12.35 24.2196 12.5607 23.7109 12.9358 23.3358ZM14.35 37.05H19V41.7H14.35V37.05ZM12.9358 35.6358C13.3109 35.2607 13.8196 35.05 14.35 35.05H19C19.5304 35.05 20.0391 35.2607 20.4142 35.6358C20.7893 36.0109 21 36.5196 21 37.05V41.7C21 42.2304 20.7893 42.7391 20.4142 43.1142C20.0391 43.4893 19.5304 43.7 19 43.7H14.35C13.8196 43.7 13.3109 43.4893 12.9358 43.1142C12.5607 42.7391 12.35 42.2304 12.35 41.7V37.05C12.35 36.5196 12.5607 36.0109 12.9358 35.6358ZM14.35 12.45H19V17.1H14.35V12.45ZM12.9358 11.0358C13.3109 10.6607 13.8196 10.45 14.35 10.45H19C19.5304 10.45 20.0391 10.6607 20.4142 11.0358C20.7893 11.4109 21 11.9196 21 12.45V17.1C21 17.6304 20.7893 18.1391 20.4142 18.5142C20.0391 18.8893 19.5304 19.1 19 19.1H14.35C13.8196 19.1 13.3109 18.8893 12.9358 18.5142C12.5607 18.1391 12.35 17.6304 12.35 17.1V12.45C12.35 11.9196 12.5607 11.4109 12.9358 11.0358ZM24.9429 26.0128C24.7554 26.2004 24.65 26.4547 24.65 26.7199V27.3699C24.65 27.6352 24.7554 27.8895 24.9429 28.077C25.1304 28.2646 25.3848 28.3699 25.65 28.3699H40.65C40.9152 28.3699 41.1696 28.2646 41.3571 28.077C41.5446 27.8895 41.65 27.6352 41.65 27.3699V26.7199C41.65 26.4547 41.5446 26.2004 41.3571 26.0128C41.1696 25.8253 40.9152 25.7199 40.65 25.7199H25.65C25.3848 25.7199 25.1304 25.8253 24.9429 26.0128ZM24.9429 38.3128C24.7554 38.5004 24.65 38.7547 24.65 39.0199V39.6699C24.65 39.9352 24.7554 40.1895 24.9429 40.377C25.1304 40.5646 25.3848 40.6699 25.65 40.6699H40.65C40.9152 40.6699 41.1696 40.5646 41.3571 40.377C41.5446 40.1895 41.65 39.9352 41.65 39.6699V39.0199C41.65 38.7547 41.5446 38.5004 41.3571 38.3128C41.1696 38.1253 40.9152 38.0199 40.65 38.0199H25.65C25.3848 38.0199 25.1304 38.1253 24.9429 38.3128ZM24.9429 13.7128C24.7554 13.9004 24.65 14.1547 24.65 14.4199V15.0699C24.65 15.3352 24.7554 15.5895 24.9429 15.777C25.1304 15.9646 25.3848 16.0699 25.65 16.0699H40.65C40.9152 16.0699 41.1696 15.9646 41.3571 15.777C41.5446 15.5895 41.65 15.3352 41.65 15.0699V14.4199C41.65 14.1547 41.5446 13.9004 41.3571 13.7128C41.1696 13.5253 40.9152 13.4199 40.65 13.4199H25.65C25.3848 13.4199 25.1304 13.5253 24.9429 13.7128Z" fill="currentColor"/>
</svg>