<svg xmlns="http://www.w3.org/2000/svg" xmlns:xlink="http://www.w3.org/1999/xlink" width="54" height="54" fill="currentcolor"><g fill-rule="evenodd"><use xlink:href="#a"/><use xlink:href="#a" y="24"/><use xlink:href="#a" y="12"/></g><use xlink:href="#b"/><use xlink:href="#b" y="12"/><use xlink:href="#b" y="24"/><defs><path id="a" d="M18 12h-6v6h6v-6zm-6-2a2 2 0 0 0-2 2v6a2 2 0 0 0 2 2h6a2 2 0 0 0 2-2v-6a2 2 0 0 0-2-2h-6z"/><path id="b" d="M23 14.5a1 1 0 0 1 1-1h19a1 1 0 0 1 1 1v1a1 1 0 0 1-1 1H24a1 1 0 0 1-1-1v-1z"/></defs></svg>