<svg width="54" height="54" fill="none" xmlns="http://www.w3.org/2000/svg"><path fill-rule="evenodd" fill="currentcolor" clip-rule="evenodd" d="M17.55 41.175h6.75v2.363h-6.75a2.369 2.369 0 0 1-2.363-2.363v-28.35a2.369 2.369 0 0 1 2.363-2.362h11.813a1.073 1.073 0 0 1 .826.354l8.27 8.269a1.073 1.073 0 0 1 .353.827v7.256H36.45v-4.894h-7.088A2.369 2.369 0 0 1 27 19.913v-7.088h-9.45v28.35Zm18.427-21.262-6.614-6.616v6.616h6.614Zm-2.212 10.564-.015-.001h-.015a8.856 8.856 0 0 0-7.926 5.656l-.003.008a.912.912 0 0 0 0 .62l.003.008a8.854 8.854 0 0 0 7.926 5.655l.015.001h.015a8.856 8.856 0 0 0 7.926-5.656l.003-.008a.911.911 0 0 0 0-.62l-.003-.008a8.854 8.854 0 0 0-7.926-5.655ZM33.75 40.6c-2.456 0-5.088-1.802-6.107-4.151 1.019-2.349 3.651-4.151 6.107-4.151 2.456 0 5.088 1.802 6.107 4.151-1.019 2.349-3.65 4.151-6.107 4.151Zm0-7.593a3.443 3.443 0 1 0 0 6.885 3.443 3.443 0 0 0 0-6.886Zm-.316 1.853a1.62 1.62 0 1 1 .632 3.178 1.62 1.62 0 0 1-.632-3.178Z" /></svg>
