<svg xmlns="http://www.w3.org/2000/svg" width="54" height="54" fill="none"><path fill="currentColor" fill-rule="evenodd" d="M2.7 43.296v1.254c0 .746.604 1.35 1.35 1.35h1.275v-1.795c.049.14.075.29.075.445v-1.254h-.075V43.2H4.05c.177 0 .347.034.502.096H2.7Zm2.7-2.507v-2.507H2.7v2.507h2.7Zm0-5.014v-2.507H2.7v2.507h2.7Zm0-5.014v-2.507H2.7v2.507h2.7Zm0-5.015V23.24H2.7v2.507h2.7Zm0-5.014v-2.507H2.7v2.507h2.7Zm0-5.014V13.21H2.7v2.507h2.7Zm-2.7-5.014h1.852a1.346 1.346 0 0 1-.502.096h1.275v-.096H5.4V9.45c0 .156-.026.306-.075.445V8.1H4.05A1.35 1.35 0 0 0 2.7 9.45v1.254Zm5.175.096h2.55V8.1h-2.55v2.7Zm5.1 0h2.55V8.1h-2.55v2.7Zm5.1 0h2.55V8.1h-2.55v2.7Zm5.1 0h2.55V8.1h-2.55v2.7Zm5.1 0h2.55V8.1h-2.55v2.7Zm5.1 0h2.55V8.1h-2.55v2.7Zm5.1 0h2.55V8.1h-2.55v2.7Zm5.1 0h2.55V8.1h-2.55v2.7Zm5.1-2.7v1.795a1.348 1.348 0 0 1-.075-.445v1.254h.075v.096h1.275c-.177 0-.347-.034-.502-.096H51.3V9.45a1.35 1.35 0 0 0-1.35-1.35h-1.275Zm-.075 5.11v2.508h2.7V13.21h-2.7Zm0 5.015v2.507h2.7v-2.507h-2.7Zm0 5.014v2.507h2.7V23.24h-2.7Zm0 5.015v2.507h2.7v-2.507h-2.7Zm0 5.014v2.507h2.7v-2.507h-2.7Zm0 5.014v2.507h2.7v-2.507h-2.7Zm2.7 5.014h-1.852c.155-.062.325-.096.502-.096h-1.275v.096H48.6v1.254c0-.156.026-.305.075-.445V45.9h1.275a1.35 1.35 0 0 0 1.35-1.35v-1.254Zm-5.175-.096h-2.55v2.7h2.55v-2.7Zm-5.1 0h-2.55v2.7h2.55v-2.7Zm-5.1 0h-2.55v2.7h2.55v-2.7Zm-5.1 0h-2.55v2.7h2.55v-2.7Zm-5.1 0h-2.55v2.7h2.55v-2.7Zm-5.1 0h-2.55v2.7h2.55v-2.7Zm-5.1 0h-2.55v2.7h2.55v-2.7Zm-5.1 0h-2.55v2.7h2.55v-2.7ZM16.2 17.55a4.05 4.05 0 0 1 4.05 4.05v1.35A4.05 4.05 0 0 1 16.2 27h-1.35a4.05 4.05 0 0 1-4.05-4.05V21.6a4.05 4.05 0 0 1 4.05-4.05h1.35Zm0 2.7h-1.35a1.35 1.35 0 0 0-1.35 1.35v1.35c0 .746.604 1.35 1.35 1.35h1.35a1.35 1.35 0 0 0 1.35-1.35V21.6a1.35 1.35 0 0 0-1.35-1.35Zm27 1.35a4.05 4.05 0 0 0-4.05-4.05H29.7a4.05 4.05 0 0 0-4.05 4.05v1.35A4.05 4.05 0 0 0 29.7 27h9.45a4.05 4.05 0 0 0 4.05-4.05V21.6Zm-13.5-1.35h9.45c.746 0 1.35.604 1.35 1.35v1.35a1.35 1.35 0 0 1-1.35 1.35H29.7a1.35 1.35 0 0 1-1.35-1.35V21.6c0-.746.604-1.35 1.35-1.35ZM43.2 37.8a4.05 4.05 0 0 0-4.05-4.05H29.7a4.05 4.05 0 0 0-4.05 4.05v1.35h2.7V37.8c0-.746.604-1.35 1.35-1.35h9.45c.746 0 1.35.604 1.35 1.35v1.35h2.7V37.8Zm-27-4.05a4.05 4.05 0 0 1 4.05 4.05v1.35h-2.7V37.8a1.35 1.35 0 0 0-1.35-1.35h-1.35a1.35 1.35 0 0 0-1.35 1.35v1.35h-2.7V37.8a4.05 4.05 0 0 1 4.05-4.05h1.35Z" clip-rule="evenodd"/></svg>