<svg width="54" height="54" viewBox="0 0 54 54" fill="none" xmlns="http://www.w3.org/2000/svg">
<path fill-rule="evenodd" clip-rule="evenodd" d="M12.78 16.2V22.95C12.78 24.5689 12.1447 26.0086 11.1621 27C12.1447 27.9914 12.78 29.4311 12.78 31.05V37.8H16.29V40.5H12.78C11.4912 40.5 10.44 39.2871 10.44 37.8V31.05C10.44 29.5629 9.38883 28.35 8.10001 28.35V25.65C9.38883 25.65 10.44 24.4371 10.44 22.95V16.2C10.44 14.7129 11.4912 13.5 12.78 13.5H16.29V16.2H12.78ZM43.56 16.2V22.95C43.56 24.4371 44.6112 25.65 45.9 25.65V28.35C44.6112 28.35 43.56 29.5629 43.56 31.05V37.8C43.56 39.2871 42.5088 40.5 41.22 40.5H37.71V37.8H41.22V31.05C41.22 29.4311 41.8553 27.9914 42.8379 27C41.8553 26.0086 41.22 24.5689 41.22 22.95V16.2H37.71V13.5H41.22C42.5088 13.5 43.56 14.7129 43.56 16.2ZM21.8005 34.5313C22.2674 34.1521 22.5869 33.5662 22.7589 32.7734L24.5467 24.4321H26.1317L26.5187 22.6053H24.9337L25.3392 20.7268H26.9242L27.3113 18.9H25.6894C24.8416 18.9 24.1842 19.0896 23.7173 19.4687C23.2627 19.8479 22.9494 20.4338 22.7774 21.2266L22.4825 22.6053H21.3398L20.9527 24.4321H22.0954L20.1971 33.2732H18.612L18.225 35.1H19.8469C20.6947 35.1 21.3459 34.9104 21.8005 34.5313ZM29.0479 26.8449L25.2512 31.6532H27.8499L29.9694 28.6372H30.1906L31.0752 31.6532H33.6739L31.9967 27.293L35.775 22.6053H33.1763L31.0568 25.5523H30.8356L29.951 22.6053H27.3523L29.0479 26.8449Z" fill="currentcolor"/>
</svg>
