<svg xmlns="http://www.w3.org/2000/svg" width="54" height="54" fill="none"><path fill="currentcolor" fill-rule="evenodd" d="M17.55 41.175H27v2.362h-9.45a2.37 2.37 0 0 1-2.363-2.362v-28.35a2.37 2.37 0 0 1 2.363-2.363h11.813a1.074 1.074 0 0 1 .826.355l8.27 8.269a1.074 1.074 0 0 1 .353.826v5.907H36.45v-3.544h-7.088A2.37 2.37 0 0 1 27 19.912v-7.087h-9.45v28.35Zm18.427-21.263-6.614-6.615v6.615h6.614Zm4.253 18.664 3.308 3.308-1.654 1.653-3.308-3.307a6.35 6.35 0 0 1-3.307.945c-3.308 0-5.906-2.599-5.906-5.906 0-3.308 2.598-5.907 5.906-5.907 3.307 0 5.906 2.6 5.906 5.907a6.35 6.35 0 0 1-.945 3.307Zm-4.961-6.851c-2.008 0-3.544 1.536-3.544 3.544s1.536 3.543 3.544 3.543 3.544-1.535 3.544-3.543-1.536-3.544-3.544-3.544Z" clip-rule="evenodd"/></svg>