<svg xmlns="http://www.w3.org/2000/svg" width="54" height="54" fill="none"><path fill="#000" fill-rule="evenodd" d="M4.05 42.132v1.164c0 .693.604 1.254 1.35 1.254h1.35v-2.507h-2.7v.09Zm0-2.328h2.7v-2.328h-2.7v2.328Zm0-4.656h2.7V32.82h-2.7v2.328Zm0-4.656h2.7v-2.328h-2.7v2.328Zm0-4.656h2.7v-2.328h-2.7v2.328Zm0-4.656h2.7v-2.328h-2.7v2.328Zm0-4.656h2.7v-2.328h-2.7v2.328Zm0-4.656v.09h2.7V9.45H5.4c-.746 0-1.35.561-1.35 1.254v1.164Zm5.4-2.418v2.507h2.7V9.45h-2.7Zm5.4 0v2.507h2.7V9.45h-2.7Zm5.4 0v2.507h2.7V9.45h-2.7Zm5.4 0v2.507h2.7V9.45h-2.7Zm5.4 0v2.507h2.7V9.45h-2.7Zm5.4 0v2.507h2.7V9.45h-2.7Zm5.4 0v2.507h2.7V9.45h-2.7Zm5.4 0v2.507h2.7V10.704c0-.693-.604-1.254-1.35-1.254h-1.35Zm2.7 4.746h-2.7v2.328h2.7v-2.328Zm0 4.656h-2.7v2.328h2.7v-2.328Zm0 4.656h-2.7v2.328h2.7v-2.328Zm0 4.656h-2.7v2.328h2.7v-2.328Zm0 4.656h-2.7v2.328h2.7V32.82Zm0 4.656h-2.7v2.328h2.7v-2.328Zm0 4.656v-.09h-2.7v2.508h1.35c.746 0 1.35-.561 1.35-1.254v-1.164Zm-5.4 2.418v-2.507h-2.7v2.507h2.7Zm-5.4 0v-2.507h-2.7v2.507h2.7Zm-5.4 0v-2.507h-2.7v2.507h2.7Zm-5.4 0v-2.507h-2.7v2.507h2.7Zm-5.4 0v-2.507h-2.7v2.507h2.7Zm-5.4 0v-2.507h-2.7v2.507h2.7Zm-5.4 0v-2.507h-2.7v2.507h2.7Z" clip-rule="evenodd"/></svg>