<svg width="54" height="54" viewBox="0 0 54 54" fill="none" xmlns="http://www.w3.org/2000/svg">
<path fill-rule="evenodd" clip-rule="evenodd" d="M47.0082 12.15C48.6329 12.15 49.95 13.5106 49.95 15.189V38.811C49.95 40.4894 48.6329 41.85 47.0082 41.85H6.99194C5.36718 41.85 4.05005 40.4894 4.05005 38.811V15.189C4.05005 13.5106 5.36718 12.15 6.99194 12.15H47.0082ZM47.0082 14.176H6.99194C6.45035 14.176 6.01131 14.6295 6.01131 15.189V16.2H6.00755V18.9H6.01131V38.811C6.01131 39.3705 6.45035 39.824 6.99194 39.824H47.0082C47.5498 39.824 47.9888 39.3705 47.9888 38.811V18.9H47.9925V16.2H47.9888V15.189C47.9888 14.6295 47.5498 14.176 47.0082 14.176ZM14.9344 26.055V22.275H17.1282V31.725H14.9344V27.945H11.6438V31.725H9.45005V22.275H11.6438V26.055H14.9344ZM19.3219 24.165H21.5157V31.725H23.7094V24.165H25.9032V22.275H19.3219V24.165ZM33.5813 22.275H35.775V31.725H33.5813V25.11L31.936 28.89L30.2907 25.11V31.725H28.0969V22.275H30.2907L31.936 26.055L33.5813 22.275ZM37.9688 22.275H40.1625V29.835H44.55V31.725H37.9688V22.275Z" fill="currentColor"/>
</svg>
