<svg xmlns="http://www.w3.org/2000/svg" width="54" height="54" fill="none"><path fill="currentcolor" d="M34.467 37.3 41 31l-6.533-6.3-1.32 1.273L38.36 31l-5.213 5.027 1.32 1.273ZM19.533 24.7 13 31l6.533 6.3 1.32-1.273L15.64 31l5.214-5.027-1.32-1.273ZM23.66 39.532l1.805.468 4.875-17.532L28.535 22 23.66 39.532Z"/><path fill="currentcolor" fill-rule="evenodd" d="M46 9a3 3 0 0 1 3 3v30a3 3 0 0 1-3 3H8a3 3 0 0 1-3-3V12a3 3 0 0 1 3-3h38Zm0 2H8a1 1 0 0 0-1 1v4h40v-4a1 1 0 0 0-1-1ZM7 42V18h40v24a1 1 0 0 1-1 1H8a1 1 0 0 1-1-1Z" clip-rule="evenodd"/></svg>