<svg xmlns="http://www.w3.org/2000/svg" width="54" height="54" fill="none"><path fill="currentColor" fill-rule="evenodd" d="M45.658 9.45c1.625 0 2.942 1.36 2.942 3.039V22.95h-1.961v-4.383H7.36V41.51c0 .56.44 1.013.98 1.013H27v2.026H8.342c-1.625 0-2.942-1.36-2.942-3.039V12.489c0-1.678 1.317-3.039 2.942-3.039h37.316Zm0 2.026H8.342c-.542 0-.98.454-.98 1.013v4.052h39.277v-4.052c0-.56-.44-1.013-.98-1.013ZM31.05 35.775A8.768 8.768 0 0 1 39.825 27a8.768 8.768 0 0 1 8.775 8.775 8.768 8.768 0 0 1-8.775 8.775 8.768 8.768 0 0 1-8.775-8.775Zm12.388-.516h3.097c-.206-2.581-1.858-4.646-4.026-5.678.62 1.548.93 3.613.93 5.678Zm-5.162 2.065c.207 3.303 1.136 4.955 1.549 5.161.413-.206 1.239-1.858 1.445-5.161h-2.994Zm1.446-8.26c-.31.207-1.342 2.272-1.446 6.195h2.994c-.103-3.923-1.135-5.988-1.548-6.194Zm-3.51 6.195c.103-2.065.31-4.13.929-5.678-2.168 1.032-3.82 3.097-4.026 5.678h3.097Zm0 2.065h-2.89c.515 2.064 1.96 3.82 3.819 4.645-.516-1.342-.826-2.994-.93-4.645Zm7.226 0c-.103 1.755-.413 3.303-.929 4.645 1.858-.826 3.304-2.58 3.923-4.645h-2.994Z" clip-rule="evenodd"/></svg>