<svg xmlns="http://www.w3.org/2000/svg" width="54" height="54" fill="currentcolor"><path fill-rule="evenodd" d="M34.636 21.91A3.818 3.818 0 1 1 27 21.908a3.818 3.818 0 0 1 7.636 0Zm-2 0A1.818 1.818 0 1 1 29 21.908a1.818 1.818 0 0 1 3.636 0Z" clip-rule="evenodd"/><path fill-rule="evenodd" d="M15 13a2 2 0 0 0-2 2v24a2 2 0 0 0 2 2h24a2 2 0 0 0 2-2V15a2 2 0 0 0-2-2H15Zm24 2H15v12.45l4.71-4.709a1.91 1.91 0 0 1 2.702 0l6.695 6.695 2.656-1.77a1.91 1.91 0 0 1 2.411.239L39 32.73V15ZM15 39v-8.754c.06-.038.116-.083.168-.135l5.893-5.893 6.684 6.685a1.911 1.911 0 0 0 2.41.238l2.657-1.77 6.02 6.02c.052.051.108.097.168.135V39H15Z" clip-rule="evenodd"/></svg>