<svg width="54" height="54" viewBox="0 0 54 54" fill="none" xmlns="http://www.w3.org/2000/svg">
<path fill-rule="evenodd" clip-rule="evenodd" d="M15.6852 37.4135H21.3429C23.2922 37.4135 24.8781 35.8276 24.8781 33.8783V16.2H20.6354V33.1708H16.3927V28.9281H12.15V33.8783C12.15 35.8276 13.7359 37.4135 15.6852 37.4135ZM29.1226 37.4135H38.3154C40.2647 37.4135 41.8507 35.8276 41.8507 33.8783V28.9281C41.8507 26.5883 39.9478 24.6854 37.608 24.6854H33.3653V20.4427H41.8507V16.2H32.6578C30.7085 16.2 29.1226 17.7859 29.1226 19.7352V24.6854C29.1226 27.0253 31.0254 28.9281 33.3653 28.9281H37.608V33.1708H29.1226V37.4135Z" fill="currentColor"/>
</svg>
