<svg xmlns="http://www.w3.org/2000/svg" width="54" height="54" fill="none"><path fill="#000" fill-rule="evenodd" d="M13.5 8.1a1.35 1.35 0 0 0-1.35 1.35v2.7H9.45A1.35 1.35 0 0 0 8.1 13.5v31.05a1.35 1.35 0 0 0 1.35 1.35h27a1.35 1.35 0 0 0 1.35-1.35v-2.7h2.7a1.35 1.35 0 0 0 1.35-1.35V9.45a1.35 1.35 0 0 0-1.35-1.35h-27Zm21.6 33.75V13.5a1.35 1.35 0 0 0-1.35-1.35H14.85V10.8h24.3v29.7h-4.05Zm-2.7-27H10.8v28.35h21.6V14.85Zm-18.9 5.4h16.2v2.7H13.5v-2.7Zm0 8.1h16.2v2.7H13.5v-2.7Zm0 8.1h10.8v2.7H13.5v-2.7Z" clip-rule="evenodd"/></svg>
