<svg xmlns="http://www.w3.org/2000/svg" fill="none" viewBox="0 0 54 54"><path fill="currentcolor" fill-rule="evenodd" d="M42.545479 12.272741C43.901087 12.272741 45 13.371687 45 14.727295v24.545443c0 1.355609-1.098913 2.454521-2.454521 2.454521H11.454554C10.098946 41.727259 9 40.628347 9 39.272738V14.727295c0-1.355608 1.098946-2.454554 2.454554-2.454554zM27.818242 40.090875h14.727237c.451869 0 .818137-.366267.818137-.818137v-4.909042H27.818242Zm-1.636385-5.727179v5.727179H11.454554c-.451869 0-.818192-.366267-.818192-.818137v-4.909042zm1.636385-1.636385h15.545374v-5.727289H27.818242Zm-1.636385-5.727289v5.727289H10.636362v-5.727289zm1.636385-1.636384h15.545374v-5.72729H27.818242Zm-1.636385-5.72729v5.72729H10.636362v-5.72729z" clip-rule="evenodd"/></svg>
