<?xml version="1.0" encoding="iso-8859-1"?>
<!-- Generator: Adobe Illustrator 18.0.0, SVG Export Plug-In . SVG Version: 6.00 Build 0)  -->
<!DOCTYPE svg PUBLIC "-//W3C//DTD SVG 1.1//EN" "http://www.w3.org/Graphics/SVG/1.1/DTD/svg11.dtd">
<svg version="1.1" id="Capa_1" xmlns="http://www.w3.org/2000/svg" xmlns:xlink="http://www.w3.org/1999/xlink" x="0px" y="0px"
	 viewBox="0 0 300 300" style="enable-background:new 0 0 300 300;" xml:space="preserve">
<g>
	<g>
		<path d="M63.784,170.838h34.595c1.792,0,3.241-1.452,3.241-3.244V133c0-1.792-1.449-3.244-3.241-3.244H63.784
			c-1.792,0-3.242,1.452-3.242,3.244v34.594C60.542,169.386,61.992,170.838,63.784,170.838z"/>
	</g>
	<g>
		<path d="M132.7,170.838h34.601c1.785,0,3.241-1.452,3.241-3.244V133c0-1.792-1.456-3.244-3.241-3.244H132.7
			c-1.787,0-3.242,1.452-3.242,3.244v34.594C129.458,169.386,130.913,170.838,132.7,170.838z"/>
	</g>
	<g>
		<path d="M201.621,170.838h34.595c1.792,0,3.241-1.452,3.241-3.244V133c0-1.792-1.449-3.244-3.241-3.244h-34.595
			c-1.792,0-3.241,1.452-3.241,3.244v34.594C198.38,169.386,199.829,170.838,201.621,170.838z"/>
	</g>
	<g>
		<path d="M63.784,239.757h34.595c1.792,0,3.241-1.453,3.241-3.245v-34.593c0-1.792-1.449-3.245-3.241-3.245H63.784
			c-1.792,0-3.242,1.453-3.242,3.245v34.593C60.542,238.304,61.992,239.757,63.784,239.757z"/>
	</g>
	<g>
		<path d="M132.7,239.757h34.601c1.785,0,3.241-1.453,3.241-3.245v-34.593c0-1.792-1.456-3.245-3.241-3.245H132.7
			c-1.787,0-3.242,1.453-3.242,3.245v34.593C129.458,238.304,130.913,239.757,132.7,239.757z"/>
	</g>
	<g>
		<path d="M201.621,239.757h34.595c1.792,0,3.241-1.453,3.241-3.245v-34.593c0-1.792-1.449-3.245-3.241-3.245h-34.595
			c-1.792,0-3.241,1.453-3.241,3.245v34.593C198.38,238.304,199.829,239.757,201.621,239.757z"/>
	</g>
	<g>
		<path d="M291.894,5.676H255v8.976c0,10.275-8.328,18.605-18.605,18.605h-2.79c-10.276,0-18.605-8.329-18.605-18.605V5.676h-45
			v8.976c0,10.275-8.328,18.605-18.605,18.605h-2.79c-10.276,0-18.605-8.329-18.605-18.605V5.676H85v8.976
			c0,10.275-8.328,18.605-18.605,18.605h-2.79C53.328,33.256,45,24.927,45,14.651V5.676H8.106C3.629,5.676,0,9.307,0,13.783v272.433
			c0,4.478,3.629,8.108,8.106,8.108h283.787c4.478,0,8.106-3.631,8.106-8.108V13.783C300,9.307,296.371,5.676,291.894,5.676z
			 M275.674,270H24.326V98.918h251.348V270z"/>
	</g>
</g>
<g>
</g>
<g>
</g>
<g>
</g>
<g>
</g>
<g>
</g>
<g>
</g>
<g>
</g>
<g>
</g>
<g>
</g>
<g>
</g>
<g>
</g>
<g>
</g>
<g>
</g>
<g>
</g>
<g>
</g>
</svg>
