<?xml version="1.0" encoding="iso-8859-1"?>
<!-- Generator: Adobe Illustrator 19.0.0, SVG Export Plug-In . SVG Version: 6.00 Build 0)  -->
<svg version="1.1" id="Layer_1" xmlns="http://www.w3.org/2000/svg" xmlns:xlink="http://www.w3.org/1999/xlink" x="0px" y="0px"
	 viewBox="0 0 489 489" style="enable-background:new 0 0 489 489;" xml:space="preserve">
<g>
	<g>
		<path d="M244.5,0C109.3,0,0,109.3,0,244.5S109.3,489,244.5,489S489,379.8,489,244.5S379.8,0,244.5,0z M265.3,447.4V437
			c0-11.4-9.4-20.8-20.8-20.8s-20.8,9.4-20.8,20.8v10.4c-95.8-9.8-172.3-86.3-182-182H51c11.4,0,20.8-9.4,20.8-20.8
			s-9.4-20.8-20.8-20.8h-9.3c9.8-95.8,86.3-172.3,182-182V51c0,11.4,9.4,20.8,20.8,20.8s20.8-9.4,20.8-20.8v-9.3
			c95.8,9.8,172.3,86.3,182,182H437c-11.4,0-20.8,9.4-20.8,20.8s9.4,20.8,20.8,20.8h10.4C437.6,361.1,361.1,437.6,265.3,447.4z"/>
		<path d="M244.5,124.9c-11.4,0-20.8,9.4-20.8,20.8v91.5L129,353.8c-7.3,9.4-5.2,21.8,3.1,29.1c11.6,8.5,23.9,2.1,28.1-3.1
			l101-122.8c2.1-3.1,4.2-7.3,4.2-12.5v-98.8C265.3,134.2,256,124.9,244.5,124.9z"/>
	</g>
</g>
<g>
</g>
<g>
</g>
<g>
</g>
<g>
</g>
<g>
</g>
<g>
</g>
<g>
</g>
<g>
</g>
<g>
</g>
<g>
</g>
<g>
</g>
<g>
</g>
<g>
</g>
<g>
</g>
<g>
</g>
</svg>
