<svg width="16" height="16" viewBox="0 0 28 29" fill="none" xmlns="http://www.w3.org/2000/svg">
  <path fill="currentColor" d="M13 14.41L18.59 20L20 18.59L15 13.58V5.00001H13V14.41Z" />
  <path fill-rule="evenodd" clip-rule="evenodd" fill="currentColor" d="M6.22202 25.6406C8.52431 27.1789 11.2311 28 14 28C17.713 28 21.274 26.525 23.8995 23.8995C26.525 21.274 28 17.713 28 14C28 11.2311 27.1789 8.52431 25.6406 6.22202C24.1022 3.91973 21.9157 2.12532 19.3576 1.06569C16.7994 0.00606644 13.9845 -0.271181 11.2687 0.269013C8.55301 0.809205 6.05844 2.14258 4.10051 4.10051C2.14258 6.05844 0.809205 8.55301 0.269013 11.2687C-0.271181 13.9845 0.00606644 16.7994 1.06569 19.3576C2.12532 21.9157 3.91973 24.1022 6.22202 25.6406ZM7.33316 4.02237C9.30655 2.70379 11.6266 2.00001 14 2.00001C17.1826 2.00001 20.2348 3.26429 22.4853 5.51472C24.7357 7.76516 26 10.8174 26 14C26 16.3734 25.2962 18.6935 23.9776 20.6668C22.6591 22.6402 20.7849 24.1783 18.5922 25.0866C16.3995 25.9948 13.9867 26.2325 11.6589 25.7694C9.33115 25.3064 7.19296 24.1635 5.51472 22.4853C3.83649 20.8071 2.69361 18.6689 2.23058 16.3411C1.76756 14.0133 2.0052 11.6005 2.91345 9.40781C3.8217 7.21509 5.35977 5.34095 7.33316 4.02237Z" />
</svg>
