<svg width="16" height="16" viewBox="0 0 16 16" fill="none" xmlns="http://www.w3.org/2000/svg">
  <path d="M13 10H3C2.73478 10 2.48043 10.1054 2.29289 10.2929C2.10536 10.4804 2 10.7348 2 11V13C2 13.2652 2.10536 13.5196 2.29289 13.7071C2.48043 13.8946 2.73478 14 3 14H13C13.2652 14 13.5196 13.8946 13.7071 13.7071C13.8946 13.5196 14 13.2652 14 13V11C14 10.7348 13.8946 10.4804 13.7071 10.2929C13.5196 10.1054 13.2652 10 13 10ZM13 13H3V11H13V13Z" fill="currentColor"/>
  <path d="M8.5 3.914L9.793 5.207L10.5 4.5L8 2L5.5 4.5L6.207 5.207L7.5 3.914V7H2V8H14V7H8.5V3.914Z" fill="currentColor"/>
</svg>
