<svg width="126" height="96" viewBox="0 0 126 96" fill="none" xmlns="http://www.w3.org/2000/svg">
<path fill-rule="evenodd" clip-rule="evenodd" d="M70 78V86C70 87.6569 68.6569 89 67 89H59V84H65V78H70ZM70 62H65V46H70V62ZM70 30H65V24H59V19H67C68.6569 19 70 20.3431 70 22V30ZM43 19V24H27V19H43ZM11 19V24H5V30H0V22C0 20.3431 1.34315 19 3 19H11ZM0 46H5V62H0V46ZM0 78H5V84H11V89H3C1.34315 89 0 87.6569 0 86V78ZM27 89V84H43V89H27Z" fill="#FF832B"/>
<rect width="70" height="70" rx="3" transform="matrix(-1 0 0 1 94 0)" fill="#E5E5E5"/>
<mask id="path-3-inside-1_728_13414" fill="white">
<path fill-rule="evenodd" clip-rule="evenodd" d="M87.0851 88.684L75.4297 45.1851L118.929 56.8406L107.885 64.9126L116.442 73.4693L103.714 86.1973L95.1572 77.6405L87.0851 88.684Z"/>
</mask>
<path fill-rule="evenodd" clip-rule="evenodd" d="M87.0851 88.684L75.4297 45.1851L118.929 56.8406L107.885 64.9126L116.442 73.4693L103.714 86.1973L95.1572 77.6405L87.0851 88.684Z" fill="#393939"/>
<path d="M75.4297 45.1851L70.6 46.4792L68.3586 38.114L76.7238 40.3555L75.4297 45.1851ZM87.0851 88.684L91.1218 91.6345L84.9586 100.066L82.2555 89.9781L87.0851 88.684ZM118.929 56.8406L120.223 52.011L130.311 54.7141L121.879 60.8772L118.929 56.8406ZM107.885 64.9126L104.35 68.4482L100.222 64.3206L104.935 60.876L107.885 64.9126ZM116.442 73.4693L119.977 69.9338L123.513 73.4693L119.977 77.0049L116.442 73.4693ZM103.714 86.1973L107.25 89.7328L103.714 93.2683L100.178 89.7328L103.714 86.1973ZM95.1572 77.6405L91.1206 74.69L94.5652 69.9774L98.6928 74.105L95.1572 77.6405ZM80.2593 43.891L91.9148 87.3899L82.2555 89.9781L70.6 46.4792L80.2593 43.891ZM117.634 61.6702L74.1356 50.0147L76.7238 40.3555L120.223 52.011L117.634 61.6702ZM104.935 60.876L115.978 52.804L121.879 60.8772L110.836 68.9492L104.935 60.876ZM112.906 77.0049L104.35 68.4482L111.421 61.3771L119.977 69.9338L112.906 77.0049ZM100.178 82.6617L112.906 69.9338L119.977 77.0049L107.25 89.7328L100.178 82.6617ZM98.6928 74.105L107.25 82.6617L100.178 89.7328L91.6217 81.1761L98.6928 74.105ZM83.0485 85.7334L91.1206 74.69L99.1939 80.5911L91.1218 91.6345L83.0485 85.7334Z" fill="#393939" mask="url(#path-3-inside-1_728_13414)"/>
<line x1="1.5" y1="-1.5" x2="14.5" y2="-1.5" transform="matrix(-0.707107 -0.707107 -0.707107 0.707107 69.431 41.2843)" stroke="black" stroke-width="3" stroke-linecap="round"/>
<line x1="1.5" y1="-1.5" x2="9.5" y2="-1.5" transform="matrix(-1 -4.21468e-08 0 1 68.2132 50.1234)" stroke="black" stroke-width="3" stroke-linecap="round"/>
<line x1="78.9695" y1="36.3671" x2="78.9695" y2="28.3671" stroke="black" stroke-width="3" stroke-linecap="round"/>
</svg>
