<svg xmlns="http://www.w3.org/2000/svg" width="54" height="54" viewBox="0 0 54 54">
  <path fill-rule="evenodd" d="M8,33 L8,38 C8,38.5522847 8.44771525,39 9,39 L9,39 L13,39 L13,41 L9,41 C7.34314575,41 6,39.6568542 6,38 L6,33 L8,33 Z M26,39 L26,41 L15,41 L15,39 L26,39 Z M39,39 L39,41 L28,41 L28,39 L39,39 Z M48,33 L48,38 C48,39.6568542 46.6568542,41 45,41 L41,41 L41,39 L45,39 C45.5128358,39 45.9355072,38.6139598 45.9932723,38.1166211 L46,38 L46,33 L48,33 Z M8,22 L8,31 L6,31 L6,22 L8,22 Z M48,22 L48,31 L46,31 L46,22 L48,22 Z M13,13 L13,15 L9,15 C8.48716416,15 8.06449284,15.3860402 8.00672773,15.8833789 L8,16 L8,20 L6,20 L6,16 C6,14.3431458 7.34314575,13 9,13 L13,13 Z M45,13 C46.6568542,13 48,14.3431458 48,16 L48,20 L46,20 L46,16 C46,15.4871642 45.6139598,15.0644928 45.1166211,15.0067277 L45,15 L41,15 L41,13 L45,13 Z M39,13 L39,15 L28,15 L28,13 L39,13 Z M26,13 L26,15 L15,15 L15,13 L26,13 Z"/>
</svg>
