<svg width="16" height="16" viewBox="0 0 16 16" fill="none" xmlns="http://www.w3.org/2000/svg">
  <path d="M3 3H13.0859L11.2929 1.20705L12 0.5L15 3.5L12 6.5L11.2929 5.79295L13.0859 4H3V7.5H2V4C2.00032 3.73488 2.10578 3.48071 2.29324 3.29324C2.48071 3.10578 2.73488 3.00032 3 3Z" fill="currentColor"/>
  <path d="M4.70705 10.2071L2.91405 12H13V8.5H14V12C13.9997 12.2651 13.8942 12.5193 13.7068 12.7068C13.5193 12.8942 13.2651 12.9997 13 13H2.91405L4.707 14.7929L4 15.5L1 12.5L4 9.5L4.70705 10.2071Z" fill="currentColor"/>
</svg>
