<svg width="54" height="54" fill="none" xmlns="http://www.w3.org/2000/svg"><path fill-rule="evenodd" clip-rule="evenodd" d="M19 24h-6v6h6v-6Zm-6-2a2 2 0 0 0-2 2v6a2 2 0 0 0 2 2h6a2 2 0 0 0 2-2v-6a2 2 0 0 0-2-2h-6Zm6 18h-6v6h6v-6Zm-6-2a2 2 0 0 0-2 2v6a2 2 0 0 0 2 2h6a2 2 0 0 0 2-2v-6a2 2 0 0 0-2-2h-6Zm6-30h-6v6h6V8Zm-6-2a2 2 0 0 0-2 2v6a2 2 0 0 0 2 2h6a2 2 0 0 0 2-2V8a2 2 0 0 0-2-2h-6Z" fill="#22242A"/><path d="M26 26a1 1 0 0 1 1-1h15a1 1 0 0 1 1 1v2a1 1 0 0 1-1 1H27a1 1 0 0 1-1-1v-2Zm0 16a1 1 0 0 1 1-1h15a1 1 0 0 1 1 1v2a1 1 0 0 1-1 1H27a1 1 0 0 1-1-1v-2Zm0-32a1 1 0 0 1 1-1h15a1 1 0 0 1 1 1v2a1 1 0 0 1-1 1H27a1 1 0 0 1-1-1v-2Z" fill="#22242A"/></svg>