<svg xmlns="http://www.w3.org/2000/svg" width="54" height="54" viewBox="0 0 54 54">
  <path
     fill-rule="evenodd"
     d="m 8,33 v 5 c 0,0.552285 0.4477153,1 1,1 v 0 h 19 v 2 H 9 C 7.3431457,41 6,39.656854 6,38 v -5 z m 0,0 31,6 v 2 H 28 v -2 h 11 z m 0,0 h 40 v 5 c 0,1.656854 -1.343146,3 -3,3 h -6 v -2 h 6 c 0.512836,0 0.935507,-0.38604 0.993272,-0.883379 L 46,38 v -5 h 2 z M 8,33 48,22 V 33 H 46 V 22 h 2 z m 0,0 5,-20 v 2 H 9 C 8.4871642,15 8.0644928,15.38604 8.0067277,15.883379 L 8,16 V 33 H 6 V 16 c 0,-1.656854 1.3431457,-3 3,-3 h 4 z m 0,0 37,-20 c 1.656854,0 3,1.343146 3,3 v 6 h -2 v -6 c 0,-0.512836 -0.38604,-0.935507 -0.883379,-0.993272 L 45,15 h -6 v -2 h 6 z m 0,0 31,-20 v 2 l -5.428135,0.03763 -0.01458,-2.029333 L 39,13 Z"
     id="path57"
     />
  <path
     d="M 20.801335,17.738732 H 19.25037 L 18.640325,16.146409 H 15.8486 l -0.568687,1.592323 h -1.499261 l 2.724519,-7 h 1.49409 z M 18.216396,14.96768 17.254802,12.382749 16.308719,14.96768 Z"
     id="path6516"
     style="stroke-width:0.516986" />
  <path
     d="m 20.801335,10.740257 h 2.802498 a 8.0137977,8.0137977 0 0 1 1.243253,0.07253 1.7716346,1.7716346 0 0 1 0.73041,0.284912 1.7975358,1.7975358 0 0 1 0.518022,0.590545 1.5540655,1.5540655 0 0 1 0.217569,0.818474 1.6887511,1.6887511 0 0 1 -0.989422,1.522984 1.8804193,1.8804193 0 0 1 0.989422,0.631987 1.6991116,1.6991116 0 0 1 0.341895,1.036044 2.0720873,2.0720873 0 0 1 -0.22275,0.932439 1.8804193,1.8804193 0 0 1 -0.564644,0.725231 2.0151049,2.0151049 0 0 1 -0.94798,0.336714 q -0.357435,0.03626 -1.709471,0.04662 h -2.408802 z m 1.4142,1.165549 v 1.621409 h 0.932438 c 0.549104,0 0.890999,0 1.036044,0 a 0.92725908,0.92725908 0 0 0 0.569825,-0.253831 0.73041078,0.73041078 0 0 0 0.212388,-0.518022 0.77185253,0.77185253 0 0 0 -0.181308,-0.518022 0.79775362,0.79775362 0 0 0 -0.51802,-0.248651 c -0.139867,0 -0.543924,-0.0259 -1.212172,-0.0259 z m 0,2.792138 v 1.875239 h 1.331316 a 5.9676115,5.9676115 0 0 0 0.973881,-0.04662 0.85473602,0.85473602 0 0 0 0.518021,-0.279733 0.82883493,0.82883493 0 0 0 0.196849,-0.590544 0.9065382,0.9065382 0 0 0 -0.150227,-0.518022 0.8754569,0.8754569 0 0 0 -0.445498,-0.321174 4.8072426,4.8072426 0 0 0 -1.248432,-0.119144 z"
     id="path6518"
     style="stroke-width:0.518022" />
  <path
     d="m 31.354041,15.132529 1.32411,0.419718 a 2.9680051,2.9680051 0 0 1 -0.999328,1.643895 2.8680722,2.8680722 0 0 1 -1.808784,0.539637 2.9330286,2.9330286 0 0 1 -2.218509,-0.919382 3.5426188,3.5426188 0 0 1 -0.864419,-2.49832 3.7125047,3.7125047 0 0 1 0.894399,-2.643224 2.9979849,2.9979849 0 0 1 2.268475,-0.934372 2.8181058,2.8181058 0 0 1 1.998657,0.734507 2.6632099,2.6632099 0 0 1 0.729509,1.26415 l -1.349093,0.324782 a 1.3990596,1.3990596 0 0 0 -1.429039,-1.134238 1.5439622,1.5439622 0 0 0 -1.219181,0.519651 2.6532166,2.6532166 0 0 0 -0.464687,1.748824 2.8081125,2.8081125 0 0 0 0.464687,1.823774 1.4989925,1.4989925 0 0 0 1.199194,0.544634 1.3590865,1.3590865 0 0 0 0.909389,-0.329778 1.9986566,1.9986566 0 0 0 0.56462,-1.104258 z"
     id="path6520"
     style="stroke-width:0.499664" />
</svg>
