<?xml version="1.0" encoding="utf-8"?>
<svg id="body_1" width="54px" height="54px" viewBox="0 0 54 54" xmlns="http://www.w3.org/2000/svg">
  <g transform="matrix(0.440697, 0, 0, 0.288703, -72.000198, -53.362686)" style="">
    <path d="M 261.968 260.403 C 260.414 260.403 258.876 260.629 257.367 261.077 C 256.679 232.991 241.391 210.461 222.697 210.461 C 205.507 210.461 190.961 229.743 188.41 255.089 C 174.55 255.604 163.378 272.853 163.378 293.989 C 163.378 315.446 174.892 332.898 189.045 332.898 L 210.518 332.898 C 212.142 332.898 213.458 330.902 213.458 328.441 C 213.458 325.98 212.142 323.984 210.518 323.984 L 189.045 323.984 C 178.134 323.984 169.258 310.527 169.258 293.989 C 169.258 277.446 178.134 263.993 189.045 263.993 C 189.581 263.993 190.148 264.033 190.777 264.116 L 193.756 264.508 L 193.963 259.984 C 195.006 237.212 207.628 219.375 222.697 219.375 C 238.585 219.375 251.512 238.969 251.512 263.053 C 251.512 264.162 251.477 265.345 251.405 266.673 L 251.02 273.783 L 255.405 271.19 C 257.504 269.948 259.713 269.317 261.969 269.317 C 271.929 269.317 280.032 281.601 280.032 296.698 C 280.032 311.796 271.929 324.08 261.969 324.08 C 261.707 324.08 253.891 324.057 246.107 324.034 C 238.38 324.007 230.684 323.984 230.428 323.984 C 228.598 323.984 227.642 322.649 227.585 320.016 L 227.585 271.907 L 230.775 277.652 C 231.821 279.539 233.675 279.778 234.917 278.194 C 236.159 276.606 236.318 273.793 235.273 271.914 L 228.203 259.181 C 227.312 257.577 226.032 256.657 224.691 256.657 C 223.35 256.657 222.07 257.577 221.18 259.181 L 214.11 271.914 C 213.064 273.793 213.223 276.606 214.466 278.194 C 215.017 278.894 215.689 279.24 216.357 279.24 C 217.195 279.24 218.026 278.702 218.608 277.652 L 221.705 272.073 L 221.705 320.059 C 221.705 325.22 224.028 332.898 230.428 332.898 C 230.683 332.898 238.373 332.921 246.094 332.944 C 253.884 332.971 261.707 332.994 261.968 332.994 C 275.171 332.994 285.911 316.711 285.911 296.698 C 285.911 276.683 275.17 260.403 261.968 260.403 Z" stroke="none" fill="#000002" fill-rule="nonzero"/>
  </g>
</svg>