<svg xmlns="http://www.w3.org/2000/svg" width="54" height="54" viewBox="0 0 54 54">
  <path d="M20.58,33.77h-3l-1.18-3.08H11L9.9,33.77H7l5.27-13.54h2.89Zm-5-5.36-1.86-5-1.83,5Z" />
  <path d="M22,20.23h5.41a15.47,15.47,0,0,1,2.4.14,3.42,3.42,0,0,1,1.41.55,3.47,3.47,0,0,1,1,1.14,3,3,0,0,1,.42,1.58,3.26,3.26,0,0,1-1.91,2.94,3.63,3.63,0,0,1,1.91,1.22,3.28,3.28,0,0,1,.66,2,4,4,0,0,1-.43,1.8A3.63,3.63,0,0,1,31.78,33a3.89,3.89,0,0,1-1.83.65q-.69.07-3.3.09H22Zm2.73,2.25v3.13h1.8c1.06,0,1.72,0,2,0a1.79,1.79,0,0,0,1.1-.49,1.41,1.41,0,0,0,.41-1,1.49,1.49,0,0,0-.35-1,1.54,1.54,0,0,0-1-.48c-.27,0-1.05-.05-2.34-.05Zm0,5.39v3.62H27.3a11.52,11.52,0,0,0,1.88-.09,1.65,1.65,0,0,0,1-.54,1.6,1.6,0,0,0,.38-1.14,1.75,1.75,0,0,0-.29-1,1.69,1.69,0,0,0-.86-.62A9.28,9.28,0,0,0,27,27.87Z" />
  <path d="M44.35,28.79l2.65.84a5.94,5.94,0,0,1-2,3.29A5.74,5.74,0,0,1,41.38,34a5.87,5.87,0,0,1-4.44-1.84,7.09,7.09,0,0,1-1.73-5A7.43,7.43,0,0,1,37,21.87,6,6,0,0,1,41.54,20a5.64,5.64,0,0,1,4,1.47A5.33,5.33,0,0,1,47,24l-2.7.65a2.8,2.8,0,0,0-2.86-2.27A3.09,3.09,0,0,0,39,23.42a5.31,5.31,0,0,0-.93,3.5A5.62,5.62,0,0,0,39,30.57a3,3,0,0,0,2.4,1.09A2.72,2.72,0,0,0,43.22,31,4,4,0,0,0,44.35,28.79Z" />
</svg>